<svg width="37" height="2812" viewBox="0 0 37 2812" fill="none" xmlns="http://www.w3.org/2000/svg">
<g clip-path="url(#clip0_606_16750)">
<path d="M18.6249 2968L18.6251 2" stroke="#C8D0FA" stroke-width="2.5" stroke-linecap="round" stroke-dasharray="0.01 9.62"/>
<path d="M18.6244 137L18.625 2" stroke="#2447F2" stroke-width="2.5" stroke-linecap="round" stroke-dasharray="0.01 9.62"/>
<path d="M3.62488 146C3.62488 137.716 10.3406 131 18.6249 131C26.9092 131 33.6249 137.716 33.6249 146C33.6249 154.284 26.9091 161 18.6249 161C10.3406 161 3.62487 154.284 3.62488 146Z" fill="#2447F2"/>
<path d="M18.6246 155C17.7962 155 17.1246 154.328 17.1246 153.5L17.1246 149.927L11.9538 147.341C11.2129 146.971 10.9125 146.07 11.283 145.329C11.6535 144.588 12.5545 144.288 13.2955 144.658L17.1246 146.573L17.1246 142.427L14.9539 141.341C14.2129 140.971 13.9125 140.07 14.283 139.329C14.6535 138.588 15.5545 138.288 16.2955 138.658L18.6247 139.823L20.9539 138.658C21.6948 138.288 22.5958 138.588 22.9663 139.329C23.3368 140.07 23.0365 140.971 22.2955 141.341L20.1246 142.427L20.1246 146.573L23.9539 144.658C24.6948 144.288 25.5958 144.588 25.9663 145.329C26.3368 146.07 26.0365 146.971 25.2955 147.341L20.1246 149.927L20.1246 153.5C20.1246 154.328 19.4531 155 18.6246 155Z" fill="white"/>
</g>
<defs>
<clipPath id="clip0_606_16750">
<rect width="36" height="2812" fill="white" transform="translate(0.625)"/>
</clipPath>
</defs>
</svg>
