<svg width="55" height="110" viewBox="0 0 55 110" fill="none" xmlns="http://www.w3.org/2000/svg">
<path d="M111.342 109.117C111.965 109.117 112.469 108.612 112.469 107.99C112.469 107.367 111.965 106.863 111.342 106.863V107.99V109.117ZM28.7805 1.98972L28.7805 0.862564L28.7805 1.98972ZM111.336 106.863C110.714 106.863 110.209 107.367 110.209 107.99C110.209 108.612 110.714 109.117 111.336 109.117L111.336 107.99L111.336 106.863ZM102.174 109.117C102.797 109.117 103.302 108.612 103.302 107.99C103.302 107.367 102.797 106.863 102.174 106.863L102.174 107.99L102.174 109.117ZM102.163 106.863C101.54 106.863 101.035 107.367 101.035 107.99C101.035 108.612 101.54 109.117 102.163 109.117L102.163 107.99L102.163 106.863ZM93.001 109.117C93.6235 109.117 94.1281 108.612 94.1281 107.99C94.1281 107.367 93.6235 106.863 93.001 106.863L93.001 107.99L93.001 109.117ZM92.9891 106.863C92.3666 106.863 91.8619 107.367 91.8619 107.99C91.8619 108.612 92.3666 109.117 92.9891 109.117L92.9891 107.99L92.9891 106.863ZM83.8275 109.117C84.45 109.117 84.9546 108.612 84.9546 107.99C84.9546 107.367 84.45 106.863 83.8275 106.863L83.8275 107.99L83.8275 109.117ZM83.8156 106.863C83.1931 106.863 82.6884 107.367 82.6884 107.99C82.6884 108.612 83.1931 109.117 83.8156 109.117L83.8156 107.99L83.8156 106.863ZM74.654 109.117C75.2765 109.117 75.7811 108.612 75.7811 107.99C75.7811 107.367 75.2765 106.863 74.654 106.863L74.654 107.99L74.654 109.117ZM74.6421 106.863C74.0195 106.863 73.5149 107.367 73.5149 107.99C73.5149 108.612 74.0195 109.117 74.6421 109.117L74.6421 107.99L74.6421 106.863ZM65.4804 109.117C66.103 109.117 66.6076 108.612 66.6076 107.99C66.6076 107.367 66.103 106.863 65.4804 106.863L65.4804 107.99L65.4804 109.117ZM65.4685 106.863C64.846 106.863 64.3414 107.367 64.3414 107.99C64.3414 108.612 64.846 109.117 65.4685 109.117L65.4685 107.99L65.4685 106.863ZM56.3069 109.117C56.9294 109.117 57.4341 108.612 57.4341 107.99C57.4341 107.367 56.9294 106.863 56.3069 106.863L56.3069 107.99L56.3069 109.117ZM56.295 106.863C55.6725 106.863 55.1679 107.367 55.1679 107.99C55.1679 108.612 55.6725 109.117 56.295 109.117L56.295 107.99L56.295 106.863ZM47.1334 109.117C47.7559 109.117 48.2606 108.612 48.2606 107.99C48.2606 107.367 47.7559 106.863 47.1334 106.863L47.1334 107.99L47.1334 109.117ZM47.1215 106.863C46.499 106.863 45.9944 107.367 45.9944 107.99C45.9944 108.612 46.499 109.117 47.1215 109.117L47.1215 107.99L47.1215 106.863ZM37.9599 109.117C38.5824 109.117 39.0871 108.612 39.0871 107.99C39.0871 107.367 38.5824 106.863 37.9599 106.863L37.9599 107.99L37.9599 109.117ZM37.948 106.863C37.3255 106.863 36.8209 107.367 36.8209 107.99C36.8209 108.612 37.3255 109.117 37.948 109.117L37.948 107.99L37.948 106.863ZM28.7864 109.117C29.4089 109.117 29.9136 108.612 29.9136 107.99C29.9136 107.367 29.4089 106.863 28.7864 106.863L28.7864 107.99L28.7864 109.117ZM28.7751 106.863C28.1526 106.862 27.6479 107.367 27.6478 107.99C27.6476 108.612 28.1522 109.117 28.7747 109.117L28.7749 107.99L28.7751 106.863ZM20.0755 107.746C20.6676 107.938 21.3034 107.614 21.4955 107.022C21.6876 106.43 21.3634 105.794 20.7713 105.602L20.4234 106.674L20.0755 107.746ZM20.7612 105.599C20.1692 105.406 19.5333 105.73 19.3409 106.322C19.1485 106.914 19.4725 107.55 20.0646 107.743L20.4129 106.671L20.7612 105.599ZM12.2204 103.74C12.7238 104.106 13.4288 103.995 13.795 103.491C14.1612 102.988 14.05 102.283 13.5466 101.917L12.8835 102.828L12.2204 103.74ZM13.538 101.911C13.0348 101.544 12.3298 101.655 11.9634 102.158C11.597 102.662 11.7079 103.367 12.2112 103.733L12.8746 102.822L13.538 101.911ZM5.98562 97.5075C6.35203 98.0107 7.05702 98.1217 7.56027 97.7553C8.06352 97.3888 8.17445 96.6838 7.80804 96.1806L6.89683 96.844L5.98562 97.5075ZM7.80182 96.1721C7.43562 95.6687 6.73067 95.5574 6.22727 95.9236C5.72387 96.2899 5.61266 96.9948 5.97886 97.4982L6.89034 96.8351L7.80182 96.1721ZM1.97591 89.6541C2.16829 90.2461 2.80419 90.5701 3.39622 90.3777C3.98825 90.1853 4.31223 89.5494 4.11985 88.9574L3.04788 89.3057L1.97591 89.6541ZM4.11659 88.9473C3.92445 88.3552 3.28869 88.031 2.69657 88.2231C2.10446 88.4153 1.78021 89.051 1.97235 89.6431L3.04447 89.2952L4.11659 88.9473ZM0.601763 80.9439C0.601885 81.5665 1.10663 82.071 1.72914 82.0709C2.35164 82.0707 2.85618 81.566 2.85606 80.9435L1.72891 80.9437L0.601763 80.9439ZM2.85606 80.9326C2.85606 80.3101 2.35141 79.8054 1.72891 79.8054C1.1064 79.8054 0.601756 80.3101 0.601756 80.9326L1.72891 80.9326L2.85606 80.9326ZM0.601756 72.2943C0.601756 72.9168 1.1064 73.4215 1.72891 73.4215C2.35141 73.4215 2.85606 72.9168 2.85606 72.2943L1.72891 72.2943L0.601756 72.2943ZM2.85606 72.2831C2.85606 71.6606 2.35141 71.1559 1.72891 71.1559C1.1064 71.1559 0.601756 71.6606 0.601756 72.2831L1.72891 72.2831L2.85606 72.2831ZM0.601757 63.6448C0.601757 64.2673 1.1064 64.772 1.72891 64.772C2.35141 64.772 2.85606 64.2673 2.85606 63.6448L1.72891 63.6448L0.601757 63.6448ZM2.85606 63.6336C2.85606 63.0111 2.35141 62.5064 1.72891 62.5064C1.1064 62.5064 0.601757 63.0111 0.601757 63.6336L1.72891 63.6336L2.85606 63.6336ZM0.601758 54.9953C0.601758 55.6178 1.1064 56.1225 1.72891 56.1225C2.35141 56.1225 2.85606 55.6178 2.85606 54.9953L1.72891 54.9953L0.601758 54.9953ZM2.85606 54.9841C2.85606 54.3616 2.35141 53.857 1.72891 53.857C1.1064 53.857 0.601758 54.3616 0.601758 54.9841L1.72891 54.9841L2.85606 54.9841ZM0.601759 46.3458C0.601759 46.9684 1.1064 47.473 1.72891 47.473C2.35142 47.473 2.85606 46.9684 2.85606 46.3458L1.72891 46.3458L0.601759 46.3458ZM2.85606 46.3346C2.85606 45.7121 2.35142 45.2075 1.72891 45.2075C1.10641 45.2075 0.601759 45.7121 0.601759 46.3346L1.72891 46.3346L2.85606 46.3346ZM0.601759 37.6964C0.601759 38.3189 1.10641 38.8235 1.72891 38.8235C2.35142 38.8235 2.85606 38.3189 2.85606 37.6964L1.72891 37.6964L0.601759 37.6964ZM2.85606 37.6851C2.85606 37.0626 2.35142 36.558 1.72891 36.558C1.10641 36.558 0.601759 37.0626 0.601759 37.6851L1.72891 37.6851L2.85606 37.6851ZM0.60176 29.0469C0.60176 29.6694 1.10641 30.174 1.72891 30.174C2.35142 30.174 2.85606 29.6694 2.85606 29.0469L1.72891 29.0469L0.60176 29.0469ZM2.85606 29.0359C2.85619 28.4134 2.35165 27.9087 1.72914 27.9086C1.10664 27.9084 0.60189 28.413 0.601768 29.0355L1.72891 29.0357L2.85606 29.0359ZM1.97236 20.3363C1.78022 20.9284 2.10447 21.5642 2.69658 21.7563C3.2887 21.9485 3.92445 21.6242 4.11659 21.0321L3.04448 20.6842L1.97236 20.3363ZM4.11986 21.022C4.31224 20.43 3.98826 19.7941 3.39623 19.6017C2.80419 19.4093 2.1683 19.7333 1.97591 20.3254L3.04789 20.6737L4.11986 21.022ZM5.97887 12.4812C5.61266 12.9846 5.72388 13.6896 6.22727 14.0558C6.73068 14.422 7.43562 14.3108 7.80183 13.8074L6.89035 13.1443L5.97887 12.4812ZM7.80805 13.7988C8.17445 13.2956 8.06353 12.5906 7.56028 12.2242C7.05703 11.8578 6.35204 11.9687 5.98563 12.472L6.89684 13.1354L7.80805 13.7988ZM12.2112 6.24643C11.7079 6.61284 11.597 7.31783 11.9634 7.82108C12.3298 8.32432 13.0348 8.43526 13.538 8.06885L12.8746 7.15764L12.2112 6.24643ZM13.5466 8.06263C14.05 7.69643 14.1612 6.99147 13.795 6.48807C13.4288 5.98468 12.7238 5.87347 12.2204 6.23967L12.8835 7.15115L13.5466 8.06263ZM20.0646 2.23672C19.4725 2.4291 19.1485 3.06499 19.3409 3.65703C19.5333 4.24906 20.1692 4.57304 20.7612 4.38066L20.4129 3.30869L20.0646 2.23672ZM20.7713 4.3774C21.3634 4.18526 21.6877 3.54949 21.4955 2.95738C21.3034 2.36527 20.6676 2.04102 20.0755 2.23316L20.4234 3.30527L20.7713 4.3774ZM28.7747 0.862564C28.1522 0.862694 27.6476 1.36743 27.6478 1.98994C27.6479 2.61245 28.1526 3.11699 28.7751 3.11686L28.7749 1.98972L28.7747 0.862564ZM28.7863 3.11686C29.4088 3.11686 29.9134 2.61222 29.9134 1.98972C29.9134 1.36721 29.4088 0.862565 28.7863 0.862564L28.7863 1.98972L28.7863 3.11686ZM37.7134 0.862565C37.0909 0.862565 36.5863 1.3672 36.5863 1.98972C36.5863 2.61222 37.0909 3.11686 37.7134 3.11686L37.7134 1.98972L37.7134 0.862565ZM37.725 3.11686C38.3475 3.11686 38.8522 2.61222 38.8522 1.98972C38.8522 1.3672 38.3475 0.862565 37.725 0.862565L37.725 1.98972L37.725 3.11686ZM46.6522 0.862566C46.0296 0.862566 45.525 1.3672 45.525 1.98972C45.525 2.61222 46.0296 3.11686 46.6522 3.11686L46.6522 1.98972L46.6522 0.862566ZM46.6638 3.11686C47.2863 3.11686 47.7909 2.61222 47.7909 1.98972C47.7909 1.3672 47.2863 0.862566 46.6638 0.862566L46.6638 1.98972L46.6638 3.11686ZM55.5909 0.862567C54.9684 0.862567 54.4638 1.36721 54.4638 1.98972C54.4638 2.61222 54.9684 3.11686 55.5909 3.11686L55.5909 1.98971L55.5909 0.862567ZM55.6025 3.11686C56.225 3.11686 56.7297 2.61222 56.7297 1.98971C56.7297 1.36721 56.225 0.862567 55.6025 0.862567L55.6025 1.98971L55.6025 3.11686ZM64.5297 0.862568C63.9071 0.862568 63.4025 1.36721 63.4025 1.98971C63.4025 2.61222 63.9071 3.11686 64.5297 3.11686L64.5297 1.98971L64.5297 0.862568ZM64.5413 3.11686C65.1638 3.11686 65.6684 2.61222 65.6684 1.98971C65.6684 1.36721 65.1638 0.862568 64.5413 0.862568L64.5413 1.98971L64.5413 3.11686ZM73.4684 0.862568C72.8459 0.862568 72.3413 1.36721 72.3413 1.98971C72.3413 2.61222 72.8459 3.11686 73.4684 3.11686L73.4684 1.98971L73.4684 0.862568ZM73.48 3.11686C74.1025 3.11686 74.6071 2.61223 74.6071 1.98971C74.6071 1.36721 74.1025 0.862568 73.48 0.862568L73.48 1.98971L73.48 3.11686ZM82.4071 0.862569C81.7846 0.862569 81.28 1.36721 81.28 1.98971C81.28 2.61222 81.7846 3.11686 82.4071 3.11686L82.4071 1.98971L82.4071 0.862569ZM82.4187 3.11686C83.0412 3.11686 83.5459 2.61222 83.5459 1.98971C83.5459 1.36721 83.0412 0.862569 82.4187 0.862569L82.4187 1.98971L82.4187 3.11686ZM91.3459 0.86257C90.7234 0.86257 90.2187 1.36721 90.2187 1.98971C90.2187 2.61222 90.7234 3.11687 91.3459 3.11687L91.3459 1.98971L91.3459 0.86257ZM91.3575 3.11687C91.98 3.11687 92.4846 2.61222 92.4846 1.98971C92.4846 1.36721 91.98 0.86257 91.3575 0.86257L91.3575 1.98971L91.3575 3.11687ZM100.285 0.862571C99.6621 0.862571 99.1575 1.36721 99.1575 1.98971C99.1575 2.61222 99.6621 3.11687 100.285 3.11687L100.285 1.98971L100.285 0.862571ZM100.296 3.11687C100.919 3.11687 101.423 2.61222 101.423 1.98971C101.423 1.36721 100.919 0.862571 100.296 0.862571L100.296 1.98971L100.296 3.11687ZM109.223 0.862564C108.601 0.862564 108.096 1.36721 108.096 1.98972C108.096 2.61222 108.601 3.11687 109.223 3.11687L109.223 1.98972L109.223 0.862564ZM111.342 107.99V106.863L111.336 106.863L111.336 107.99L111.336 109.117L111.342 109.117V107.99ZM102.174 107.99L102.174 106.863L102.163 106.863L102.163 107.99L102.163 109.117L102.174 109.117L102.174 107.99ZM93.001 107.99L93.001 106.863L92.9891 106.863L92.9891 107.99L92.9891 109.117L93.001 109.117L93.001 107.99ZM83.8275 107.99L83.8275 106.863L83.8156 106.863L83.8156 107.99L83.8156 109.117L83.8275 109.117L83.8275 107.99ZM74.654 107.99L74.654 106.863L74.6421 106.863L74.6421 107.99L74.6421 109.117L74.654 109.117L74.654 107.99ZM65.4804 107.99L65.4804 106.863L65.4685 106.863L65.4685 107.99L65.4685 109.117L65.4804 109.117L65.4804 107.99ZM56.3069 107.99L56.3069 106.863L56.295 106.863L56.295 107.99L56.295 109.117L56.3069 109.117L56.3069 107.99ZM47.1334 107.99L47.1334 106.863L47.1215 106.863L47.1215 107.99L47.1215 109.117L47.1334 109.117L47.1334 107.99ZM37.9599 107.99L37.9599 106.863L37.948 106.863L37.948 107.99L37.948 109.117L37.9599 109.117L37.9599 107.99ZM28.7864 107.99L28.7864 106.863L28.7805 106.863L28.7805 107.99L28.7805 109.117L28.7864 109.117L28.7864 107.99ZM28.7805 107.99L28.7805 106.863C28.7787 106.863 28.7769 106.863 28.7751 106.863L28.7749 107.99L28.7747 109.117C28.7766 109.117 28.7785 109.117 28.7805 109.117L28.7805 107.99ZM20.4234 106.674L20.7713 105.602C20.7679 105.601 20.7646 105.6 20.7612 105.599L20.4129 106.671L20.0646 107.743C20.0682 107.744 20.0718 107.745 20.0755 107.746L20.4234 106.674ZM12.8835 102.828L13.5466 101.917C13.5437 101.915 13.5409 101.913 13.538 101.911L12.8746 102.822L12.2112 103.733C12.2142 103.735 12.2173 103.738 12.2204 103.74L12.8835 102.828ZM6.89683 96.844L7.80804 96.1806C7.80597 96.1778 7.8039 96.1749 7.80182 96.1721L6.89034 96.8351L5.97886 97.4982C5.98111 97.5013 5.98337 97.5044 5.98562 97.5075L6.89683 96.844ZM3.04788 89.3057L4.11985 88.9574C4.11876 88.9541 4.11768 88.9507 4.11659 88.9473L3.04447 89.2952L1.97235 89.6431C1.97354 89.6468 1.97473 89.6504 1.97591 89.6541L3.04788 89.3057ZM1.72891 80.9437L2.85606 80.9435C2.85606 80.9417 2.85606 80.94 2.85606 80.9382L1.72891 80.9382L0.601756 80.9382C0.601756 80.9401 0.601756 80.942 0.601763 80.9439L1.72891 80.9437ZM1.72891 80.9382L2.85606 80.9382L2.85606 80.9326L1.72891 80.9326L0.601756 80.9326L0.601756 80.9382L1.72891 80.9382ZM1.72891 72.2943L2.85606 72.2943L2.85606 72.2831L1.72891 72.2831L0.601756 72.2831L0.601756 72.2943L1.72891 72.2943ZM1.72891 63.6448L2.85606 63.6448L2.85606 63.6336L1.72891 63.6336L0.601757 63.6336L0.601757 63.6448L1.72891 63.6448ZM1.72891 54.9953L2.85606 54.9953L2.85606 54.9841L1.72891 54.9841L0.601758 54.9841L0.601758 54.9953L1.72891 54.9953ZM1.72891 46.3458L2.85606 46.3458L2.85606 46.3346L1.72891 46.3346L0.601759 46.3346L0.601759 46.3458L1.72891 46.3458ZM1.72891 37.6964L2.85606 37.6964L2.85606 37.6851L1.72891 37.6851L0.601759 37.6851L0.601759 37.6964L1.72891 37.6964ZM1.72891 29.0469L2.85606 29.0469L2.85606 29.0413L1.72891 29.0413L0.60176 29.0413L0.60176 29.0469L1.72891 29.0469ZM1.72891 29.0413L2.85606 29.0413C2.85606 29.0395 2.85606 29.0377 2.85606 29.0359L1.72891 29.0357L0.601768 29.0355C0.60176 29.0374 0.60176 29.0393 0.60176 29.0413L1.72891 29.0413ZM3.04448 20.6842L4.11659 21.0321C4.11768 21.0287 4.11877 21.0254 4.11986 21.022L3.04789 20.6737L1.97591 20.3254C1.97473 20.329 1.97355 20.3327 1.97236 20.3363L3.04448 20.6842ZM6.89035 13.1443L7.80183 13.8074C7.8039 13.8045 7.80598 13.8017 7.80805 13.7988L6.89684 13.1354L5.98563 12.472C5.98338 12.4751 5.98112 12.4781 5.97887 12.4812L6.89035 13.1443ZM12.8746 7.15764L13.538 8.06885C13.5409 8.06677 13.5437 8.0647 13.5466 8.06263L12.8835 7.15115L12.2204 6.23967C12.2173 6.24192 12.2143 6.24417 12.2112 6.24643L12.8746 7.15764ZM20.4129 3.30869L20.7612 4.38066C20.7646 4.37957 20.7679 4.37848 20.7713 4.3774L20.4234 3.30527L20.0755 2.23316C20.0719 2.23434 20.0682 2.23553 20.0646 2.23672L20.4129 3.30869ZM28.7749 1.98972L28.7751 3.11686C28.7769 3.11686 28.7787 3.11686 28.7805 3.11686L28.7805 1.98972L28.7805 0.862564C28.7785 0.862564 28.7766 0.862564 28.7747 0.862564L28.7749 1.98972ZM28.7805 1.98972L28.7805 3.11686L28.7863 3.11686L28.7863 1.98972L28.7863 0.862564L28.7805 0.862564L28.7805 1.98972ZM37.7134 1.98972L37.7134 3.11686L37.725 3.11686L37.725 1.98972L37.725 0.862565L37.7134 0.862565L37.7134 1.98972ZM46.6522 1.98972L46.6522 3.11686L46.6638 3.11686L46.6638 1.98972L46.6638 0.862566L46.6522 0.862566L46.6522 1.98972ZM55.5909 1.98971L55.5909 3.11686L55.6025 3.11686L55.6025 1.98971L55.6025 0.862567L55.5909 0.862567L55.5909 1.98971ZM64.5297 1.98971L64.5297 3.11686L64.5413 3.11686L64.5413 1.98971L64.5413 0.862568L64.5297 0.862568L64.5297 1.98971ZM73.4684 1.98971L73.4684 3.11686L73.48 3.11686L73.48 1.98971L73.48 0.862568L73.4684 0.862568L73.4684 1.98971ZM82.4071 1.98971L82.4071 3.11686L82.4187 3.11686L82.4187 1.98971L82.4187 0.862569L82.4071 0.862569L82.4071 1.98971ZM91.3459 1.98971L91.3459 3.11687L91.3575 3.11687L91.3575 1.98971L91.3575 0.86257L91.3459 0.86257L91.3459 1.98971ZM100.285 1.98971L100.285 3.11687L100.296 3.11687L100.296 1.98971L100.296 0.862571L100.285 0.862571L100.285 1.98971ZM109.223 1.98972L109.223 3.11687L109.229 3.11687L109.229 1.98972L109.229 0.862564L109.223 0.862564L109.223 1.98972Z" fill="#63E0F9"/>
</svg>
